<?xml version="1.0" encoding="UTF-8" standalone="no"?><!DOCTYPE svg PUBLIC "-//W3C//DTD SVG 1.1//EN"
    "http://www.w3.org/Graphics/SVG/1.1/DTD/svg11.dtd"><!-- Generated by graphviz version 2.40.1 (20161225.0304)
 --><!-- Title: G Pages: 1 -->
<svg height="260pt" viewBox="0.00 0.00 956.78 260.00" width="957pt" xmlns="http://www.w3.org/2000/svg">
    <g class="graph" id="graph0" transform="scale(1 1) rotate(0) translate(4 256)">
        <title>G</title>
        <polygon fill="#ffffff" points="-4,4 -4,-256 952.7797,-256 952.7797,4 -4,4"
            stroke="transparent" />
        <!-- :app -->
        <g class="node" id="node1">
            <title>:app</title>
            <ellipse cx="580.7966" cy="-234" fill="none" rx="27.8286" ry="18" stroke="#000000" />
            <text fill="#000000" font-family="Times,serif" font-size="14.00" text-anchor="middle"
                x="580.7966" y="-229.8">:app
            </text>
        </g>
        <!-- :feature:feature&#45;payment -->
        <g class="node" id="node2">
            <title>:feature:feature-payment</title>
            <ellipse cx="580.7966" cy="-162" fill="none" rx="106.4541" ry="18" stroke="#000000" />
            <text fill="#000000" font-family="Times,serif" font-size="14.00" text-anchor="middle"
                x="580.7966" y="-157.8">:feature:feature-payment
            </text>
        </g>
        <!-- :app&#45;&gt;:feature:feature&#45;payment -->
        <g class="edge" id="edge1">
            <title>:app-&gt;:feature:feature-payment</title>
            <path d="M580.7966,-215.8314C580.7966,-208.131 580.7966,-198.9743 580.7966,-190.4166" fill="none" stroke="#ff0000"
                stroke-width="2" />
            <polygon fill="#ff0000" points="584.2967,-190.4132 580.7966,-180.4133 577.2967,-190.4133 584.2967,-190.4132" stroke="#ff0000"
                stroke-width="2" />
        </g>
        <!-- :feature:feature&#45;toys -->
        <g class="node" id="node3">
            <title>:feature:feature-toys</title>
            <ellipse cx="366.7966" cy="-162" fill="none" rx="89.1376" ry="18" stroke="#000000" />
            <text fill="#000000" font-family="Times,serif" font-size="14.00" text-anchor="middle"
                x="366.7966" y="-157.8">:feature:feature-toys
            </text>
        </g>
        <!-- :app&#45;&gt;:feature:feature&#45;toys -->
        <g class="edge" id="edge2">
            <title>:app-&gt;:feature:feature-toys</title>
            <path d="M555.8293,-225.5998C523.3357,-214.6674 465.6182,-195.2484 422.4808,-180.7349" fill="none"
                stroke="#000000" />
            <polygon fill="#000000" points="423.5548,-177.4035 412.9608,-177.5319 421.3226,-184.038 423.5548,-177.4035"
                stroke="#000000" />
        </g>
        <!-- :lib:console&#45;logger -->
        <g class="node" id="node4">
            <title>:lib:console-logger</title>
            <ellipse cx="864.7966" cy="-90" fill="none" rx="83.9663" ry="18" stroke="#000000" />
            <text fill="#000000" font-family="Times,serif" font-size="14.00" text-anchor="middle"
                x="864.7966" y="-85.8">:lib:console-logger
            </text>
        </g>
        <!-- :app&#45;&gt;:lib:console&#45;logger -->
        <g class="edge" id="edge3">
            <title>:app-&gt;:lib:console-logger</title>
            <path d="M607.8674,-230.1402C645.4809,-223.9159 714.7866,-209.2778 766.7966,-180 796.6516,-163.1939 824.8067,-135.6531 843.211,-115.4567" fill="none"
                stroke="#000000" />
            <polygon fill="#000000" points="845.9578,-117.6354 850.0059,-107.8444 840.7356,-112.974 845.9578,-117.6354"
                stroke="#000000" />
        </g>
        <!-- :lib:crypto -->
        <g class="node" id="node5">
            <title>:lib:crypto</title>
            <ellipse cx="673.7966" cy="-90" fill="none" rx="51.0415" ry="18" stroke="#000000" />
            <text fill="#000000" font-family="Times,serif" font-size="14.00" text-anchor="middle"
                x="673.7966" y="-85.8">:lib:crypto
            </text>
        </g>
        <!-- :app&#45;&gt;:lib:crypto -->
        <g class="edge" id="edge4">
            <title>:app-&gt;:lib:crypto</title>
            <path d="M607.9218,-229.7593C635.4221,-223.8583 676.579,-210.2548 695.7966,-180 707.9701,-160.835 700.0309,-135.4428 690.4574,-116.517" fill="none"
                stroke="#000000" />
            <polygon fill="#000000" points="693.4193,-114.6381 685.5542,-107.5394 687.2758,-117.9934 693.4193,-114.6381"
                stroke="#000000" />
        </g>
        <!-- :lib:logger -->
        <g class="node" id="node6">
            <title>:lib:logger</title>
            <ellipse cx="633.7966" cy="-18" fill="none" rx="51.0415" ry="18" stroke="#000000" />
            <text fill="#000000" font-family="Times,serif" font-size="14.00" text-anchor="middle"
                x="633.7966" y="-13.8">:lib:logger
            </text>
        </g>
        <!-- :app&#45;&gt;:lib:logger -->
        <g class="edge" id="edge5">
            <title>:app-&gt;:lib:logger</title>
            <path d="M607.8012,-230.0471C637.6693,-224.2622 685.2083,-210.6339 712.7966,-180 735.1034,-155.2307 729.0826,-140.9983 733.7966,-108 736.0594,-92.1608 741.993,-85.7411 733.7966,-72 722.8153,-53.5901 703.1439,-41.0803 684.1362,-32.7786" fill="none"
                stroke="#000000" />
            <polygon fill="#000000" points="685.1869,-29.4281 674.6041,-28.923 682.5621,-35.9174 685.1869,-29.4281"
                stroke="#000000" />
        </g>
        <!-- :android&#45;lib:logcat&#45;logger -->
        <g class="node" id="node7">
            <title>:android-lib:logcat-logger</title>
            <ellipse cx="110.7966" cy="-162" fill="none" rx="110.5936" ry="18" stroke="#000000" />
            <text fill="#000000" font-family="Times,serif" font-size="14.00" text-anchor="middle"
                x="110.7966" y="-157.8">:android-lib:logcat-logger
            </text>
        </g>
        <!-- :app&#45;&gt;:android&#45;lib:logcat&#45;logger -->
        <g class="edge" id="edge6">
            <title>:app-&gt;:android-lib:logcat-logger</title>
            <path d="M553.8393,-229.8704C486.8797,-219.6127 310.5456,-192.5998 201.6035,-175.9108" fill="none"
                stroke="#000000" />
            <polygon fill="#000000" points="202.0176,-172.4335 191.6029,-174.3788 200.9576,-179.3528 202.0176,-172.4335"
                stroke="#000000" />
        </g>
        <!-- :android&#45;lib:navigation -->
        <g class="node" id="node8">
            <title>:android-lib:navigation</title>
            <ellipse cx="295.7966" cy="-90" fill="none" rx="100.1607" ry="18" stroke="#000000" />
            <text fill="#000000" font-family="Times,serif" font-size="14.00" text-anchor="middle"
                x="295.7966" y="-85.8">:android-lib:navigation
            </text>
        </g>
        <!-- :app&#45;&gt;:android&#45;lib:navigation -->
        <g class="edge" id="edge7">
            <title>:app-&gt;:android-lib:navigation</title>
            <path d="M552.9027,-233.5569C483.3248,-231.8028 305.0833,-223.1066 268.7966,-180 253.6737,-162.0348 264.0959,-135.8158 276.1162,-116.3062" fill="none"
                stroke="#000000" />
            <polygon fill="#000000" points="279.095,-118.1464 281.6655,-107.8681 273.2464,-114.3001 279.095,-118.1464"
                stroke="#000000" />
        </g>
        <!-- :feature:feature&#45;payment&#45;&gt;:lib:crypto -->
        <g class="edge" id="edge11">
            <title>:feature:feature-payment-&gt;:lib:crypto</title>
            <path d="M603.7854,-144.2022C615.9635,-134.774 631.0614,-123.0853 644.1154,-112.979" fill="none" stroke="#ff0000"
                stroke-width="2" />
            <polygon fill="#ff0000" points="646.5828,-115.4951 652.3474,-106.6058 642.2975,-109.9601 646.5828,-115.4951" stroke="#ff0000"
                stroke-width="2" />
        </g>
        <!-- :feature:feature&#45;payment&#45;&gt;:lib:logger -->
        <g class="edge" id="edge10">
            <title>:feature:feature-payment-&gt;:lib:logger</title>
            <path d="M587.4787,-143.7221C594.1327,-125.5338 604.6467,-96.8289 613.7966,-72 616.977,-63.3698 620.4545,-53.9684 623.6048,-45.4648" fill="none"
                stroke="#000000" />
            <polygon fill="#000000" points="626.9212,-46.5876 627.1153,-35.9946 620.3577,-44.1546 626.9212,-46.5876"
                stroke="#000000" />
        </g>
        <!-- :feature:feature&#45;payment&#45;&gt;:android&#45;lib:navigation -->
        <g class="edge" id="edge8">
            <title>:feature:feature-payment-&gt;:android-lib:navigation</title>
            <path d="M521.3982,-146.9941C475.5552,-135.4127 412.0745,-119.3755 364.1267,-107.2623" fill="none"
                stroke="#000000" />
            <polygon fill="#000000" points="364.6956,-103.7962 354.1429,-104.7401 362.981,-110.5829 364.6956,-103.7962"
                stroke="#000000" />
        </g>
        <!-- :android&#45;lib:base -->
        <g class="node" id="node9">
            <title>:android-lib:base</title>
            <ellipse cx="490.7966" cy="-90" fill="none" rx="76.442" ry="18" stroke="#000000" />
            <text fill="#000000" font-family="Times,serif" font-size="14.00" text-anchor="middle"
                x="490.7966" y="-85.8">:android-lib:base
            </text>
        </g>
        <!-- :feature:feature&#45;payment&#45;&gt;:android&#45;lib:base -->
        <g class="edge" id="edge9">
            <title>:feature:feature-payment-&gt;:android-lib:base</title>
            <path d="M558.5494,-144.2022C547.0203,-134.9789 532.7872,-123.5925 520.347,-113.6403" fill="none"
                stroke="#000000" />
            <polygon fill="#000000" points="522.4725,-110.8585 512.4773,-107.3446 518.0996,-116.3246 522.4725,-110.8585"
                stroke="#000000" />
        </g>
        <!-- :feature:feature&#45;toys&#45;&gt;:lib:logger -->
        <g class="edge" id="edge15">
            <title>:feature:feature-toys-&gt;:lib:logger</title>
            <path d="M294.8074,-151.2894C229.7958,-138.6843 149.5983,-113.9625 186.7966,-72 211.9635,-43.6098 456.0345,-27.2236 572.5188,-20.9622" fill="none"
                stroke="#000000" />
            <polygon fill="#000000" points="572.9065,-24.4467 582.7075,-20.4229 572.5364,-17.4565 572.9065,-24.4467"
                stroke="#000000" />
        </g>
        <!-- :feature:feature&#45;toys&#45;&gt;:android&#45;lib:navigation -->
        <g class="edge" id="edge13">
            <title>:feature:feature-toys-&gt;:android-lib:navigation</title>
            <path d="M349.246,-144.2022C340.6269,-135.4617 330.0922,-124.7786 320.6608,-115.2144" fill="none"
                stroke="#000000" />
            <polygon fill="#000000" points="322.9049,-112.5054 313.3913,-107.8425 317.9207,-117.4204 322.9049,-112.5054"
                stroke="#000000" />
        </g>
        <!-- :feature:feature&#45;toys&#45;&gt;:android&#45;lib:base -->
        <g class="edge" id="edge14">
            <title>:feature:feature-toys-&gt;:android-lib:base</title>
            <path d="M396.1829,-144.937C413.2929,-135.0022 435.0355,-122.3774 453.362,-111.7362" fill="none"
                stroke="#000000" />
            <polygon fill="#000000" points="455.1586,-114.7403 462.049,-106.6921 451.6436,-108.6868 455.1586,-114.7403"
                stroke="#000000" />
        </g>
        <!-- :lib:console&#45;logger&#45;&gt;:lib:logger -->
        <g class="edge" id="edge16">
            <title>:lib:console-logger-&gt;:lib:logger</title>
            <path d="M816.9333,-75.0816C777.4614,-62.7786 721.7172,-45.4038 682.1197,-33.0617" fill="none"
                stroke="#000000" />
            <polygon fill="#000000" points="683.0087,-29.6728 672.4202,-30.0385 680.9256,-36.3557 683.0087,-29.6728"
                stroke="#000000" />
        </g>
        <!-- :lib:crypto&#45;&gt;:lib:logger -->
        <g class="edge" id="edge12">
            <title>:lib:crypto-&gt;:lib:logger</title>
            <path d="M663.909,-72.2022C659.2935,-63.8944 653.703,-53.8316 648.5981,-44.6427" fill="none" stroke="#ff0000"
                stroke-width="2" />
            <polygon fill="#ff0000" points="651.6252,-42.8844 643.7091,-35.8425 645.5061,-46.2839 651.6252,-42.8844" stroke="#ff0000"
                stroke-width="2" />
        </g>
        <!-- :android&#45;lib:logcat&#45;logger&#45;&gt;:lib:logger -->
        <g class="edge" id="edge17">
            <title>:android-lib:logcat-logger-&gt;:lib:logger</title>
            <path d="M117.7316,-143.9877C126.8913,-122.869 145.1656,-88.6413 172.7966,-72 238.6656,-32.3292 462.5248,-21.796 572.2096,-19.0041" fill="none"
                stroke="#000000" />
            <polygon fill="#000000" points="572.5459,-22.4971 582.4587,-18.7573 572.3774,-15.4991 572.5459,-22.4971"
                stroke="#000000" />
        </g>
    </g>
</svg>
